<svg width="25" height="26" viewBox="0 0 25 26" fill="none" xmlns="http://www.w3.org/2000/svg">
<circle cx="12.4009" cy="12.8814" r="12.4009" fill="black"/>
<path fill-rule="evenodd" clip-rule="evenodd" d="M9.75415 9.24261V10.0328L8.81152 10.1096C8.48768 10.1356 8.18193 10.2695 7.94316 10.4898C7.70439 10.7101 7.54638 11.0042 7.4944 11.3249C7.4714 11.4684 7.45025 11.6122 7.43096 11.7561C7.42663 11.7909 7.43339 11.8262 7.45027 11.857C7.46715 11.8878 7.4933 11.9124 7.525 11.9275L7.56785 11.9475C10.5888 13.3776 14.2063 13.3776 17.2267 11.9475L17.2696 11.9275C17.3012 11.9123 17.3272 11.8876 17.344 11.8569C17.3608 11.8261 17.3674 11.7909 17.3631 11.7561C17.3442 11.6121 17.3232 11.4683 17.3002 11.3249C17.2482 11.0042 17.0902 10.7101 16.8514 10.4898C16.6127 10.2695 16.3069 10.1356 15.9831 10.1096L15.0404 10.0333V9.24316C15.0405 9.00993 14.9568 8.78442 14.8047 8.60765C14.6525 8.43088 14.442 8.3146 14.2113 8.27995L13.5325 8.17812C12.7799 8.06563 12.0147 8.06563 11.2621 8.17812L10.5833 8.27995C10.3527 8.31459 10.1422 8.43079 9.99009 8.60744C9.83794 8.78409 9.75423 9.00947 9.75415 9.24261ZM13.4084 9.00333C12.738 8.90321 12.0566 8.90321 11.3862 9.00333L10.7074 9.10517C10.6744 9.11009 10.6443 9.12668 10.6226 9.1519C10.6008 9.17712 10.5889 9.2093 10.5888 9.24261V9.97434C11.7935 9.90554 13.0011 9.90554 14.2058 9.97434V9.24261C14.2057 9.2093 14.1937 9.17712 14.172 9.1519C14.1502 9.12668 14.1202 9.11009 14.0872 9.10517L13.4084 9.00333Z" fill="white"/>
<path d="M17.4731 12.917C17.472 12.899 17.4666 12.8815 17.4572 12.8661C17.4479 12.8507 17.4349 12.8378 17.4195 12.8285C17.4041 12.8192 17.3866 12.8138 17.3686 12.8127C17.3506 12.8116 17.3326 12.815 17.3162 12.8224C14.2162 14.1951 10.5826 14.1951 7.48259 12.8224C7.46616 12.815 7.44818 12.8116 7.43019 12.8127C7.41219 12.8138 7.39473 12.8192 7.37929 12.8285C7.36386 12.8378 7.35091 12.8507 7.34157 12.8661C7.33223 12.8815 7.32677 12.899 7.32567 12.917C7.26931 13.9823 7.32658 15.0506 7.4965 16.1038C7.54837 16.4246 7.70632 16.7187 7.94511 16.9391C8.18389 17.1596 8.4897 17.2935 8.81362 17.3196L9.8553 17.4031C11.5486 17.54 13.2497 17.54 14.9435 17.4031L15.9852 17.3196C16.3091 17.2935 16.6149 17.1596 16.8537 16.9391C17.0925 16.7187 17.2504 16.4246 17.3023 16.1038C17.4726 15.0493 17.5304 13.9809 17.4731 12.9175" fill="white"/>
</svg>
