<svg width="26" height="26" viewBox="0 0 26 26" fill="none" xmlns="http://www.w3.org/2000/svg">
<circle cx="13" cy="13" r="13" fill="black"/>
<path d="M14.5134 7.50823C14.2918 7.28656 13.9943 7.16406 13.6851 7.16406H9.5026C8.86094 7.16406 8.33594 7.68906 8.33594 8.33073V17.6641C8.33594 18.3057 8.8551 18.8307 9.49677 18.8307H16.5026C17.1443 18.8307 17.6693 18.3057 17.6693 17.6641V11.1482C17.6693 10.8391 17.5468 10.5416 17.3251 10.3257L14.5134 7.50823ZM14.7526 16.4974H11.2526C10.9318 16.4974 10.6693 16.2349 10.6693 15.9141C10.6693 15.5932 10.9318 15.3307 11.2526 15.3307H14.7526C15.0734 15.3307 15.3359 15.5932 15.3359 15.9141C15.3359 16.2349 15.0734 16.4974 14.7526 16.4974ZM14.7526 14.1641H11.2526C10.9318 14.1641 10.6693 13.9016 10.6693 13.5807C10.6693 13.2599 10.9318 12.9974 11.2526 12.9974H14.7526C15.0734 12.9974 15.3359 13.2599 15.3359 13.5807C15.3359 13.9016 15.0734 14.1641 14.7526 14.1641ZM13.5859 10.6641V8.03906L16.7943 11.2474H14.1693C13.8484 11.2474 13.5859 10.9849 13.5859 10.6641Z" fill="white"/>
</svg>
