<svg width="34" height="34" viewBox="0 0 34 34" fill="none" xmlns="http://www.w3.org/2000/svg">
<rect width="34" height="34" rx="17" fill="white"/>
<path d="M9.60938 21.4355C9.60938 20.2972 9.60937 19.7281 9.86585 19.3097C10.0092 19.0754 10.2059 18.8788 10.4402 18.7354C10.8578 18.4789 11.4276 18.4789 12.5659 18.4789C13.7042 18.4789 14.2733 18.4789 14.6916 18.7354C14.9259 18.8788 15.1225 19.0754 15.2659 19.3097C15.5224 19.7273 15.5224 20.2972 15.5224 21.4355C15.5224 22.5737 15.5224 23.1429 15.2659 23.5619C15.1225 23.7955 14.9259 23.9921 14.6916 24.1355C14.274 24.392 13.7042 24.392 12.5659 24.392C11.4276 24.392 10.8585 24.392 10.4402 24.1355C10.2061 23.9924 10.0093 23.7958 9.86585 23.5619C9.60937 23.1429 9.60938 22.5737 9.60938 21.4355ZM18.4789 21.4355C18.4789 20.2972 18.4789 19.7281 18.7354 19.3097C18.8788 19.0754 19.0754 18.8788 19.3097 18.7354C19.7273 18.4789 20.2972 18.4789 21.4355 18.4789C22.5737 18.4789 23.1429 18.4789 23.5619 18.7354C23.7955 18.8788 23.9921 19.0754 24.1355 19.3097C24.392 19.7273 24.392 20.2972 24.392 21.4355C24.392 22.5737 24.392 23.1429 24.1355 23.5619C23.992 23.7955 23.7955 23.992 23.5619 24.1355C23.1429 24.392 22.5737 24.392 21.4355 24.392C20.2972 24.392 19.7281 24.392 19.3097 24.1355C19.0757 23.9924 18.8789 23.7958 18.7354 23.5619C18.4789 23.1429 18.4789 22.5737 18.4789 21.4355ZM9.60938 12.5659C9.60938 11.4276 9.60937 10.8585 9.86585 10.4402C10.0092 10.2059 10.2059 10.0092 10.4402 9.86585C10.8578 9.60937 11.4276 9.60938 12.5659 9.60938C13.7042 9.60938 14.2733 9.60937 14.6916 9.86585C14.9259 10.0092 15.1225 10.2059 15.2659 10.4402C15.5224 10.8578 15.5224 11.4276 15.5224 12.5659C15.5224 13.7042 15.5224 14.2733 15.2659 14.6916C15.1225 14.9259 14.9259 15.1225 14.6916 15.2659C14.274 15.5224 13.7042 15.5224 12.5659 15.5224C11.4276 15.5224 10.8585 15.5224 10.4402 15.2659C10.206 15.1226 10.0092 14.9258 9.86585 14.6916C9.60937 14.274 9.60938 13.7042 9.60938 12.5659ZM18.4789 12.5659C18.4789 11.4276 18.4789 10.8585 18.7354 10.4402C18.8788 10.2059 19.0754 10.0092 19.3097 9.86585C19.7273 9.60937 20.2972 9.60938 21.4355 9.60938C22.5737 9.60938 23.1429 9.60937 23.5619 9.86585C23.7955 10.0092 23.9921 10.2059 24.1355 10.4402C24.392 10.8578 24.392 11.4276 24.392 12.5659C24.392 13.7042 24.392 14.2733 24.1355 14.6916C23.9921 14.9259 23.7955 15.1225 23.5619 15.2659C23.1429 15.5224 22.5737 15.5224 21.4355 15.5224C20.2972 15.5224 19.7281 15.5224 19.3097 15.2659C19.0756 15.1226 18.8788 14.9258 18.7354 14.6916C18.4789 14.274 18.4789 13.7042 18.4789 12.5659Z" stroke="black" stroke-width="1.1087" stroke-linecap="round" stroke-linejoin="round"/>
</svg>
