<svg width="108" height="18" viewBox="0 0 108 18" fill="none" xmlns="http://www.w3.org/2000/svg">
<path d="M24.5341 16.1095C21.2432 16.1095 17.9062 13.8081 17.9062 10.287C17.9062 6.76597 21.2432 4.44161 24.5341 4.44161C27.8251 4.44161 31.162 6.76597 31.162 10.287C31.162 13.8081 27.8251 16.1095 24.5341 16.1095ZM20.2766 10.287C20.2766 12.4043 22.3018 13.9002 24.5341 13.9002C26.6744 13.9002 28.7916 12.4273 28.7916 10.287C28.7916 8.07774 26.6974 6.62789 24.5341 6.62789C22.3018 6.62789 20.2766 8.10076 20.2766 10.287Z" fill="white" fill-opacity="0.83"/>
<path d="M32.7392 0H35.1096V6.19063C35.4087 5.98351 36.7665 4.41859 39.3441 4.41859C43.2103 4.41859 45.995 7.06515 45.995 10.195C45.995 13.4859 43.0032 16.0864 39.298 16.0864C35.7539 16.0864 32.7622 13.7161 32.7622 10.4481H32.7392V0ZM39.3671 6.51282C36.9507 6.51282 35.1096 8.14678 35.1096 10.3561C35.1096 12.4733 36.9967 13.8771 39.3441 13.8771C41.7835 13.8771 43.6476 12.4043 43.6476 10.264C43.6476 8.26185 41.8295 6.51282 39.3671 6.51282Z" fill="white" fill-opacity="0.83"/>
<path d="M51.4166 16.8919L46.5608 4.44161H49.0692L51.992 11.967L55.0988 5.77639L58.2056 11.967L61.1283 4.44161H63.6368L58.804 16.8919L55.0758 9.61965L51.4166 16.8919Z" fill="white" fill-opacity="0.83"/>
<path d="M67.9069 16.1095H65.3754V0H67.9069V6.55885C68.2751 5.91447 69.9551 4.46462 72.5556 4.46462C76.8131 4.46462 78.1479 7.54843 78.1479 10.9314V16.1095H75.6164V11.1846C75.6164 8.58404 74.6959 6.58186 72.1874 6.58186C70.3923 6.58186 67.9069 7.6635 67.9069 11.0925V16.1095Z" fill="white" fill-opacity="0.83"/>
<path d="M79.9354 10.264C79.9354 7.06515 82.9041 4.41859 86.5633 4.41859C90.1534 4.41859 93.0991 7.11118 93.0991 10.4942V11.1385L83.3874 10.4021L90.5907 9.64266C90.3375 8.26185 88.8646 6.60488 86.6553 6.60488C84.308 6.60488 82.3288 8.14678 82.3288 10.3331C82.3288 11.967 83.9397 13.8771 86.6553 13.8771C88.6345 13.8771 89.7392 12.8646 90.2224 12.1051L92.6619 12.5424C91.6263 14.7056 89.3479 16.0864 86.6784 16.0864C82.9272 16.0864 79.9354 13.4859 79.9354 10.264Z" fill="white" fill-opacity="0.83"/>
<path d="M94.8357 10.264C94.8357 7.06515 97.8045 4.41859 101.464 4.41859C105.054 4.41859 107.999 7.11118 107.999 10.4942V11.1385L98.2878 10.4021L105.491 9.64266C105.238 8.26185 103.765 6.60488 101.556 6.60488C99.2083 6.60488 97.2292 8.14678 97.2292 10.3331C97.2292 11.967 98.8401 13.8771 101.556 13.8771C103.535 13.8771 104.64 12.8646 105.123 12.1051L107.562 12.5424C106.527 14.7056 104.248 16.0864 101.579 16.0864C97.8275 16.0864 94.8357 13.4859 94.8357 10.264Z" fill="white" fill-opacity="0.83"/>
<path d="M8.05473 0.460938V4.1431H12.6574V8.7458C12.6574 10.3567 12.6574 13.8088 8.28486 14.0389C4.14243 14.0389 3.22189 10.5869 3.22189 8.97594H0C0 13.5786 3.22189 17.2608 8.515 17.2608C13.8081 17.2608 16.3396 12.8882 16.3396 10.3567V0.460938H8.05473Z" fill="white" fill-opacity="0.83"/>
<rect x="2.76562" y="3.67969" width="5.52324" height="5.52324" fill="#7FE800"/>
</svg>
